<svg width="13" height="13" viewBox="0 0 13 13" fill="none" xmlns="http://www.w3.org/2000/svg">
<path d="M6.96935 0.380859C5.71943 0.382277 4.52111 0.879434 3.63728 1.76326C2.75346 2.64709 2.2563 3.84541 2.25488 5.09533C2.25488 9.12941 6.54076 12.1777 6.72291 12.3063C6.79591 12.3549 6.88165 12.3809 6.96935 12.3809C7.05705 12.3809 7.14279 12.3549 7.21579 12.3063C7.39794 12.1777 11.6838 9.12941 11.6838 5.09533C11.6824 3.84541 11.1852 2.64709 10.3014 1.76326C9.41759 0.879434 8.21927 0.382277 6.96935 0.380859V0.380859ZM6.96935 3.38098C7.30842 3.38098 7.63987 3.48152 7.92179 3.6699C8.20372 3.85827 8.42345 4.12602 8.55321 4.43927C8.68296 4.75253 8.71691 5.09723 8.65076 5.42978C8.58461 5.76233 8.42134 6.0678 8.18158 6.30756C7.94182 6.54731 7.63636 6.71059 7.3038 6.77674C6.97125 6.84289 6.62655 6.80894 6.3133 6.67918C6.00004 6.54943 5.7323 6.32969 5.54392 6.04777C5.35554 5.76585 5.255 5.43439 5.255 5.09533C5.255 4.64065 5.43562 4.2046 5.75712 3.8831C6.07862 3.56159 6.51468 3.38098 6.96935 3.38098V3.38098Z" fill="#AEB9E1"/>
</svg>
