<svg width="16" height="17" viewBox="0 0 16 17" fill="none" xmlns="http://www.w3.org/2000/svg">
<path d="M7.86146 9.82021C8.51925 9.82021 9.0525 9.27338 9.0525 8.59883C9.0525 7.92427 8.51925 7.37744 7.86146 7.37744C7.20366 7.37744 6.67041 7.92427 6.67041 8.59883C6.67041 9.27338 7.20366 9.82021 7.86146 9.82021Z" fill="#D9E1FA"/>
<path d="M13.4891 9.82021C14.1469 9.82021 14.6802 9.27338 14.6802 8.59883C14.6802 7.92427 14.1469 7.37744 13.4891 7.37744C12.8313 7.37744 12.2981 7.92427 12.2981 8.59883C12.2981 9.27338 12.8313 9.82021 13.4891 9.82021Z" fill="#D9E1FA"/>
<path d="M2.23377 9.82021C2.89157 9.82021 3.42482 9.27338 3.42482 8.59883C3.42482 7.92427 2.89157 7.37744 2.23377 7.37744C1.57597 7.37744 1.04272 7.92427 1.04272 8.59883C1.04272 9.27338 1.57597 9.82021 2.23377 9.82021Z" fill="#D9E1FA"/>
</svg>
