<svg width="13" height="13" viewBox="0 0 13 13" fill="none" xmlns="http://www.w3.org/2000/svg">
<path d="M11.6435 1.28603C11.4732 1.11643 11.271 0.982265 11.0485 0.891275C10.826 0.800284 10.5877 0.754274 10.3474 0.755901C10.107 0.757528 9.8694 0.806761 9.64819 0.900755C9.42698 0.994749 9.22658 1.13164 9.05858 1.30353L2.19598 8.16623C1.94252 8.41969 1.76184 8.7366 1.67284 9.08382L1.09165 11.3512C1.01614 11.6457 1.28394 11.9135 1.5785 11.8379L3.84597 11.2564C4.19309 11.1673 4.50991 10.9867 4.7633 10.7333L11.626 3.87049C11.7979 3.70256 11.9349 3.50221 12.0289 3.28103C12.1229 3.05986 12.1722 2.82223 12.1738 2.58191C12.1754 2.34158 12.1294 2.10331 12.0384 1.88088C11.9473 1.65845 11.8131 1.45627 11.6435 1.28603Z" fill="#AEB9E1" stroke="#AEB9E1" stroke-linecap="round" stroke-linejoin="round"/>
</svg>
