<svg width="9" height="12" viewBox="0 0 9 12" fill="none" xmlns="http://www.w3.org/2000/svg">
<path fill-rule="evenodd" clip-rule="evenodd" d="M4.36268 0C4.80348 0 5.16082 0.357339 5.16082 0.798139V1.2019C5.52801 1.20203 5.89159 1.27442 6.23083 1.41494C6.57038 1.55558 6.87891 1.76173 7.13879 2.02161C7.39867 2.2815 7.60482 2.59002 7.74547 2.92957C7.88612 3.26912 7.9585 3.63305 7.9585 4.00058C7.9585 4.44138 7.60117 4.79872 7.16037 4.79872C6.71957 4.79872 6.36223 4.44138 6.36223 4.00058C6.36223 3.84268 6.33113 3.68632 6.2707 3.54044C6.21027 3.39456 6.1217 3.26201 6.01005 3.15035C5.8984 3.0387 5.76584 2.95013 5.61996 2.8897C5.47408 2.82928 5.31772 2.79818 5.15982 2.79818H3.35933C3.04044 2.79818 2.7346 2.92486 2.5091 3.15035C2.28361 3.37585 2.15693 3.68168 2.15693 4.00058C2.15693 4.31948 2.28361 4.62531 2.5091 4.85081C2.7346 5.0763 3.04044 5.20299 3.35933 5.20299H5.55993C6.30219 5.20299 7.01404 5.49785 7.5389 6.0227C8.06375 6.54756 8.35861 7.25941 8.35861 8.00167C8.35861 8.74392 8.06375 9.45578 7.5389 9.98063C7.01404 10.5055 6.30219 10.8004 5.55993 10.8004H5.16082V11.2019C5.16082 11.6427 4.80348 12 4.36268 12C3.92188 12 3.56454 11.6427 3.56454 11.2019V10.8004H3.15928C2.41702 10.8004 1.70517 10.5055 1.18031 9.98063C0.655456 9.45578 0.360596 8.74392 0.360596 8.00167C0.360596 7.56087 0.717935 7.20353 1.15873 7.20353C1.59953 7.20353 1.95687 7.56087 1.95687 8.00167C1.95687 8.32057 2.08356 8.6264 2.30905 8.8519C2.53454 9.07739 2.84038 9.20407 3.15928 9.20407H4.32948C4.34049 9.20362 4.35156 9.20339 4.36268 9.20339C4.3738 9.20339 4.38487 9.20362 4.39588 9.20407H5.55993C5.87883 9.20407 6.18466 9.07739 6.41016 8.8519C6.63565 8.6264 6.76234 8.32057 6.76234 8.00167C6.76234 7.68277 6.63565 7.37693 6.41016 7.15144C6.18466 6.92594 5.87883 6.79926 5.55993 6.79926H3.35933C2.61708 6.79926 1.90522 6.5044 1.38037 5.97955C0.85551 5.45469 0.56065 4.74284 0.56065 4.00058C0.56065 3.25832 0.85551 2.54647 1.38037 2.02161C1.90522 1.49676 2.61708 1.2019 3.35933 1.2019H3.56454V0.798139C3.56454 0.357339 3.92188 0 4.36268 0Z" fill="#CB3CFF"/>
</svg>
