<svg width="11" height="11" viewBox="0 0 11 11" fill="none" xmlns="http://www.w3.org/2000/svg">
<path d="M10.1354 0.380859H1.80208C1.58107 0.380859 1.36911 0.468657 1.21283 0.624937C1.05655 0.781217 0.96875 0.993179 0.96875 1.21419V9.54753C0.96875 9.76854 1.05655 9.9805 1.21283 10.1368C1.36911 10.2931 1.58107 10.3809 1.80208 10.3809H10.1354C10.3564 10.3809 10.5684 10.2931 10.7247 10.1368C10.881 9.9805 10.9687 9.76854 10.9687 9.54753V1.21419C10.9687 0.993179 10.881 0.781217 10.7247 0.624937C10.5684 0.468657 10.3564 0.380859 10.1354 0.380859V0.380859ZM8.54687 4.43294L5.49479 7.34961C5.41589 7.42383 5.31145 7.46486 5.20313 7.46419C5.09639 7.4646 4.99368 7.42351 4.91667 7.34961L3.39062 5.89128C3.3483 5.85435 3.31388 5.80924 3.28942 5.75867C3.26497 5.7081 3.251 5.65311 3.24835 5.597C3.24569 5.54089 3.25441 5.48482 3.27398 5.43217C3.29354 5.37951 3.32355 5.33136 3.36221 5.2906C3.40086 5.24984 3.44735 5.21732 3.49889 5.19499C3.55043 5.17265 3.60596 5.16097 3.66213 5.16065C3.7183 5.16032 3.77396 5.17136 3.82575 5.19309C3.87755 5.21482 3.92442 5.2468 3.96354 5.28711L5.20313 6.4694L7.97396 3.82878C8.05497 3.75809 8.16018 3.72146 8.26757 3.72654C8.37497 3.73163 8.47624 3.77802 8.55023 3.85604C8.62421 3.93406 8.66517 4.03765 8.66454 4.14517C8.66392 4.25268 8.62176 4.35579 8.54687 4.43294Z" fill="#AEB9E1"/>
</svg>
